PathFileType	4	(X/Y/Z)	26_2_83_p0_0-352_filt_butterworth.trc
DataRate	CameraRate	NumFrames	NumMarkers	Units	OrigDataRate	OrigDataStartFrame	OrigNumFrames
59.0	59.0	6	27	m	59.0	132	352
Frame#	Time	RHip			RKnee			RAnkle			RBigToe			RSmallToe			RHeel			LHip			LKnee			LAnkle			LBigToe			LSmallToe			LHeel			Neck			Head			Nose			RShoulder			RElbow			RWrist			RThumb			RIndex			RPinky			LShoulder			LElbow			LWrist			LThumb			LIndex			LPinky			
		X1	Y1	Z1	X2	Y2	Z2	X3	Y3	Z3	X4	Y4	Z4	X5	Y5	Z5	X6	Y6	Z6	X7	Y7	Z7	X8	Y8	Z8	X9	Y9	Z9	X10	Y10	Z10	X11	Y11	Z11	X12	Y12	Z12	X13	Y13	Z13	X14	Y14	Z14	X15	Y15	Z15	X16	Y16	Z16	X17	Y17	Z17	X18	Y18	Z18	X19	Y19	Z19	X20	Y20	Z20	X21	Y21	Z21	X22	Y22	Z22	X23	Y23	Z23	X24	Y24	Z24	X25	Y25	Z25	X26	Y26	Z26	X27	Y27	Z27	
132	2.23728813559322	0.32119335375648683	0.7061436973069418	0.809317699605941	0.31968274512448214	0.9798819874361332	1.2290697395272845	0.2921959049879432	1.2014431281909457	1.6479296559991725	0.24054131973488968	1.014060335836957	1.7147664069531332	0.29692608521753755	1.0386536793860959	1.7129419526562724	0.2745090218350325	1.313809609393232	1.6847664469058357	0.11150844176933977	0.7209251095379142	0.8037086680504886	0.10979875851693946	0.9338940666328797	1.2278252155961695	0.08499136988308356	1.1852041622837952	1.6451077160745544	0.08460311452235919	1.0453602590008066	1.7147081061757674	0.03485552502586341	1.0821113548487429	1.7020250169508768	0.10013262484402008	1.257060892592886	1.6774685065805803	0.20375602068561333	0.5366096632906764	0.3403351805483451	0.17229069839805183	0.2997708629750436	0.1464078125472886	0.17663319834130425	0.34687670552452765	0.2964043593444094	0.37632386012481567	0.550403361576455	0.37541022366514337	0.4991448787558026	0.49370457339137785	0.5850074268714133	0.3632555293825847	0.280427355857252	0.6726818206252687	0.24975274297577285	0.21082686832721687	0.6892524226459621	0.25466464396483024	0.15998129764211455	0.7079503211657638	0.298120611044401	0.22011993753009698	0.7444363833729688	0.04669649761955675	0.5725138134240375	0.3841724375187694	-0.1148517957335877	0.5261278729311027	0.5777712116251024	-0.0030836353418325995	0.33003036194591	0.643236226496193	0.08209049350076583	0.2390968650873977	0.6425043523055743	0.08428277293924558	0.21878161158122766	0.6645981026856655	0.06440314217095763	0.28872575255398164	0.6983693092331384
133	2.254237288135593	0.32188771151435575	0.7029029944600118	0.813372035557691	0.31967340063732985	0.9800878470763433	1.2290072800841707	0.2921915078281854	1.2012838648548088	1.6476674265052016	0.24137261118767575	1.0176531884302533	1.7150558002941658	0.29779511397602676	1.0422963828506475	1.7132621918762847	0.27412318537584435	1.3138031510051336	1.6848201783305485	0.1112214735700423	0.7196978217320317	0.8065289041918828	0.10965663252421864	0.9336692840618913	1.2278519959527812	0.08417994293315419	1.182842145672443	1.644119716152995	0.08557478048270968	1.049345960490667	1.7159120878040326	0.035137565969611644	1.0817632027077977	1.7019744692909509	0.09952052548059206	1.2579381835674444	1.6782117007348778	0.20338254231793268	0.5324243248962464	0.34333242269347203	0.17174811365328818	0.2991703393191367	0.1443145704113069	0.1757169590144862	0.34603111773646084	0.2950082622346536	0.3802130391380942	0.5571000518097594	0.3792393117339984	0.4912123877388517	0.5138953372767675	0.6002502409098416	0.36555992246313385	0.2918603604369682	0.688930163193795	0.26132237674403086	0.20868147915646998	0.6946737970065897	0.2623835302583998	0.16730357393748754	0.717159561481804	0.3010644547303353	0.22655301074965775	0.7598521589654444	0.047348555746343446	0.5662177111933636	0.3894102956414585	-0.10261444426793268	0.5617229316005461	0.58848510255963	-0.008871814669904004	0.34591017158065646	0.6580695118940145	0.06555741105693658	0.24509686284002313	0.6512705745276189	0.06337197686961199	0.2182487254199547	0.6760262404349866	0.05131229139518933	0.28418376105432097	0.714470255813934
134	2.2711864406779663	0.3221363296045221	0.7052538733098556	0.8181622501314164	0.3180473918764295	0.9787833822270234	1.2298665534626387	0.29207410921303034	1.2008267628142837	1.647134470528164	0.24240251230872273	1.0219523681761582	1.7150232853156824	0.298122799626193	1.0436111783720536	1.713698764290812	0.27367648420376944	1.313567775786511	1.6847421937836378	0.11199723545651584	0.7199038726883453	0.8095458982792949	0.10959795444764524	0.933463049944642	1.2278766199951905	0.08321668277871189	1.178677725914917	1.6436547573919373	0.08638922992168493	1.0505476810823657	1.7149535998035144	0.03516727770370284	1.0816032689314707	1.7018438976446164	0.09939846076845449	1.2559937445307394	1.6777129769760686	0.2032653758681031	0.5257941739280948	0.3476854952838812	0.1706665513429603	0.2987560891423364	0.1433341711168507	0.17367401169341481	0.3457266346287465	0.297089090707785	0.38378085340599594	0.5631968119359021	0.383765194704654	0.48641611399056894	0.5299376469780253	0.608404324094272	0.3676024503277036	0.30491047271857336	0.7075429051946124	0.2679582014906976	0.2143341828719018	0.7077503272055979	0.2677469938797981	0.18562502096274688	0.7352310528306157	0.30149684125912474	0.24144153192245424	0.7777729702098235	0.047696921386277485	0.5575259994922372	0.39830055947470455	-0.0925845422721871	0.5881667851265474	0.5964829791669182	-0.011765878976616259	0.35981090357777773	0.6747728077366125	0.04907718332012383	0.24599518250641883	0.6700088408035936	0.0416711654244135	0.21922768409296678	0.6937639540506696	0.03801177257285216	0.2786713455402364	0.733930500590853
135	2.288135593220339	0.32226054871542487	0.7106138579487208	0.8243654160531164	0.3152796140914329	0.9752891869122561	1.2311833063779969	0.29177324243769276	1.2003993325142492	1.6468200726233162	0.24299747418877496	1.0244275904884326	1.7143333474870859	0.2980976082354684	1.0434124939886014	1.7141838999658026	0.27323125549008154	1.3130783470593168	1.68426257942219	0.11408071703544187	0.7219893209764782	0.8142378674309128	0.10959724812317784	0.9332279808229164	1.2278043468040485	0.0819024006056572	1.1737266599613985	1.6437732990148655	0.08680674248361257	1.0495271596610116	1.7120715020490296	0.035011946321259896	1.081433178504548	1.701624256201582	0.09956094851626252	1.2519833688792017	1.6761557379965628	0.20321369606866851	0.5214516281513705	0.3510337511574544	0.16979892780297537	0.2996727394680134	0.14282071656274092	0.17106306655312653	0.3462790499745251	0.30057584970344325	0.3853701318566245	0.566713413645986	0.3876305023598886	0.4846756899349626	0.5446439688703153	0.6124455891335269	0.3674107628958492	0.318951941525383	0.7248414492606851	0.2670039749847003	0.23213667612169012	0.728898358168898	0.26842968948793955	0.2125745723712692	0.7596710868839406	0.2984929846463482	0.2684356977419503	0.7969037483884133	0.04564650641789777	0.5521379723757343	0.40949759423065474	-0.08397925738337052	0.6077439024559839	0.6021747476329635	-0.011928387498115433	0.3714150492115796	0.6949362744289156	0.03783706564996786	0.24712294181703695	0.6969363729283711	0.027239538414687948	0.22553501305174967	0.7185854674541549	0.02826382425297817	0.2794064266562278	0.7579953652761547
136	2.305084745762712	0.32256888148444623	0.7145219925265552	0.8324263335145334	0.31271839651027056	0.9711119331004835	1.2326593859413864	0.2913795921753686	1.2007561057429716	1.6476920083633317	0.24294333923155886	1.024411087779649	1.7131774362558942	0.29796246854419506	1.0429032862956111	1.7145367062885675	0.2729868440452902	1.3124972483736281	1.683148122538503	0.11645209498793443	0.7274662984577712	0.8220446059932682	0.10961853556470691	0.9329483272859915	1.2276310557831513	0.08079182763825535	1.1701296369857679	1.643912810777813	0.08677654603992374	1.0476215290705098	1.7090492023724355	0.03482358330192833	1.0812023819582193	1.7012928194225956	0.09974747294966128	1.2485674301534175	1.6744593391309204	0.20317070586212382	0.5200701214423391	0.3521624815414242	0.16942569135816768	0.30236521489554163	0.14282587722928783	0.16920828405773136	0.3479014090654971	0.3023367004039785	0.38437256896504934	0.5666946583353956	0.39014549137301735	0.48387800675418463	0.5580123434449495	0.6158562778132709	0.36151557124082545	0.3376383164285089	0.7389189307819914	0.2604948416674039	0.2607764789762403	0.7540537847228942	0.2634358402150394	0.24440746167863303	0.7853043946122629	0.29073959829864765	0.3040157812052022	0.8171311149027727	0.04111683788139842	0.5533044699777219	0.4191904744731433	-0.07473011926826413	0.6276142665050832	0.6061394274914222	-0.009967851147160235	0.3824315039222272	0.7173504705300073	0.03647375184002658	0.2572282656176344	0.7271754168497361	0.023632110383163218	0.24152931972548214	0.7491391144306079	0.025467841027439306	0.29148423256791106	0.7874047278181509
137	2.3220338983050848	0.3231252829494989	0.7139187577257503	0.8419242112905021	0.3113344833233046	0.9686790416091114	1.2346016766035481	0.29108638973528794	1.2020844652469995	1.6498282684022303	0.24258835126626438	1.0233525849376357	1.7121046587333284	0.2978309671807565	1.0427147760378308	1.7145990066289487	0.27308845901647133	1.3122196324578042	1.6816445449692528	0.11745824086594008	0.7370509136856412	0.8326153919276242	0.1096333269823716	0.9327736634506448	1.2275569659136862	0.08028593748966438	1.1687492426313089	1.6438107453748723	0.08662642739251371	1.046073031982222	1.7077048151960694	0.03472169029423308	1.0808944812521677	1.7006567413433842	0.09976420941081648	1.247087626504342	1.6734412199722006	0.20314162911489006	0.5198788933092999	0.351636031944543	0.1686075307074163	0.3056091167242232	0.1437194107352414	0.1686411549057391	0.3507167994218064	0.30094843778983743	0.38151416608756283	0.5634168969481856	0.3917902003768605	0.48172211516740815	0.5691057517072329	0.6203441591369373	0.3499741673379269	0.36458820271999204	0.7508241650977513	0.25061272111456295	0.29780077762221374	0.778572792410237	0.25442172422183085	0.2794010590303578	0.809161068513121	0.27926192064386124	0.339891021608978	0.8384836853631673	0.036820222414964826	0.5578700620239665	0.4246343334352036	-0.06424296115421926	0.6488150071638867	0.6096599523068724	-0.0054559481623370695	0.3958596095343754	0.7405623877575946	0.04576650370322022	0.2820059964819046	0.7577523506130892	0.03030804126711534	0.26898983389869646	0.7829332989831137	0.03093241340132548	0.31395848711315216	0.8205076516357672
